<svg width="233" height="318" viewBox="0 0 233 318" fill="none" xmlns="http://www.w3.org/2000/svg">
<path fill-rule="evenodd" clip-rule="evenodd" d="M197.477 161.904C177.913 161.904 162.055 177.748 162.055 197.291C162.055 216.835 177.912 232.68 197.477 232.68C217.038 232.68 232.897 216.836 232.897 197.291C232.897 177.748 217.037 161.904 197.477 161.904ZM116.458 222.134V167.867C116.458 155.732 121.733 145.289 131.507 138.082C139.321 132.319 144.391 123.054 144.391 112.603C144.391 95.1216 130.207 80.951 112.71 80.951C111.095 80.951 109.504 81.0714 107.954 81.3056C95.9449 83.1112 84.8266 79.4545 76.2384 70.8754L66.3683 61.0145C58.1764 52.8301 54.4955 42.4194 55.7253 30.9101C55.8295 29.9276 55.8838 28.9267 55.8838 27.9171C55.8838 12.5005 43.3739 0 27.9419 0C12.51 0 0 12.5005 0 27.9171C0 43.3347 12.51 55.833 27.9419 55.833C28.9547 55.833 29.9544 55.7787 30.9378 55.6746C42.4578 54.4459 52.8782 58.1234 61.0702 66.3077L70.9414 76.1708C79.5296 84.7488 83.1886 95.8557 81.3824 107.854C81.1491 109.403 81.0285 110.99 81.0285 112.604C81.0285 123.054 86.0976 132.321 93.914 138.084C103.689 145.291 108.963 155.733 108.963 167.869V222.134C108.963 234.757 103.221 245.61 92.7829 252.722C83.4317 259.092 77.2891 269.819 77.2891 281.979C77.2891 301.524 93.1466 317.368 112.711 317.368C132.272 317.368 148.131 301.524 148.131 281.979C148.131 269.819 141.991 259.092 132.64 252.722C122.201 245.609 116.458 234.757 116.458 222.134Z" fill="#0080C7"/>
</svg>
