<svg width="118" height="160" viewBox="0 0 118 160" fill="none" xmlns="http://www.w3.org/2000/svg">
<path fill-rule="evenodd" clip-rule="evenodd" d="M99.7596 81.6235C89.8768 81.6235 81.8655 89.6111 81.8655 99.4636C81.8655 109.317 89.8763 117.305 99.7596 117.305C109.641 117.305 117.653 109.317 117.653 99.4636C117.653 89.6111 109.641 81.6235 99.7596 81.6235ZM58.8313 111.988V84.6294C58.8313 78.5116 61.4962 73.2472 66.4335 69.6137C70.381 66.7084 72.9423 62.0372 72.9423 56.7684C72.9423 47.9552 65.7771 40.8112 56.9378 40.8112C56.1219 40.8112 55.3186 40.8719 54.5355 40.99C48.4687 41.9003 42.852 40.0567 38.5135 35.7316L33.5274 30.7603C29.3891 26.6341 27.5296 21.3856 28.1509 15.5832C28.2035 15.0879 28.2309 14.5833 28.2309 14.0743C28.2309 6.30209 21.9113 0 14.1155 0C6.31968 0 0 6.30209 0 14.0743C0 21.8471 6.31968 28.148 14.1155 28.148C14.6271 28.148 15.1321 28.1207 15.6289 28.0682C21.4485 27.4487 26.7126 29.3027 30.8509 33.4288L35.8376 38.4013C40.1761 42.7258 42.0246 48.3254 41.1121 54.3743C40.9942 55.155 40.9333 55.9554 40.9333 56.769C40.9333 62.0372 43.4941 66.7094 47.4427 69.6147C52.3805 73.2482 55.0449 78.5121 55.0449 84.6305V111.988C55.0449 118.352 52.1442 123.823 46.8713 127.409C42.1473 130.62 39.0443 136.028 39.0443 142.159C39.0443 152.012 47.055 160 56.9384 160C66.8201 160 74.8314 152.012 74.8314 142.159C74.8314 136.028 71.7299 130.62 67.0059 127.409C61.7325 123.823 58.8313 118.352 58.8313 111.988Z" fill="#0080C7"/>
</svg>
