<svg width="42" height="42" viewBox="0 0 42 42" fill="none" xmlns="http://www.w3.org/2000/svg">
<path fill-rule="evenodd" clip-rule="evenodd" d="M34.4837 15.4361C33.8473 15.4361 33.3313 15.9505 33.3313 16.585C33.3313 17.2195 33.8472 17.7339 34.4837 17.7339C35.1201 17.7339 35.636 17.2195 35.636 16.585C35.636 15.9505 35.12 15.4361 34.4837 15.4361ZM31.848 17.3915V15.6297C31.848 15.2357 32.0196 14.8967 32.3375 14.6627C32.5918 14.4756 32.7567 14.1748 32.7567 13.8355C32.7567 13.2679 32.2953 12.8079 31.726 12.8079C31.6735 12.8079 31.6218 12.8118 31.5713 12.8194C31.1806 12.878 30.8189 12.7593 30.5395 12.4807L30.2184 12.1606C29.9519 11.8949 29.8322 11.5569 29.8722 11.1832C29.8756 11.1513 29.8774 11.1188 29.8774 11.0861C29.8774 10.5855 29.4704 10.1797 28.9683 10.1797C28.4663 10.1797 28.0593 10.5855 28.0593 11.0861C28.0593 11.5866 28.4663 11.9924 28.9683 11.9924C29.0013 11.9924 29.0338 11.9906 29.0658 11.9872C29.4406 11.9473 29.7796 12.0667 30.0461 12.3325L30.3672 12.6527C30.6466 12.9312 30.7656 13.2918 30.7069 13.6813C30.6993 13.7316 30.6954 13.7831 30.6954 13.8355C30.6954 14.1748 30.8603 14.4757 31.1146 14.6628C31.4326 14.8968 31.6041 15.2357 31.6041 15.6298V17.3915C31.6041 17.8014 31.4173 18.1537 31.0778 18.3846C30.7736 18.5914 30.5737 18.9397 30.5737 19.3345C30.5737 19.969 31.0896 20.4834 31.7261 20.4834C32.3624 20.4834 32.8784 19.969 32.8784 19.3345C32.8784 18.9397 32.6786 18.5914 32.3744 18.3846C32.0348 18.1537 31.848 17.8014 31.848 17.3915ZM29.0903 20.141V18.3792C29.0903 17.9852 29.262 17.6462 29.5799 17.4122C29.8341 17.2251 29.999 16.9243 29.999 16.585C29.999 16.0174 29.5376 15.5574 28.9683 15.5574C28.9158 15.5574 28.8641 15.5613 28.8137 15.5689C28.423 15.6275 28.0613 15.5088 27.7819 15.2303L27.4608 14.9101C27.1943 14.6444 27.0746 14.3064 27.1145 13.9327C27.118 13.9008 27.1197 13.8683 27.1197 13.8355C27.1197 13.335 26.7127 12.9292 26.2107 12.9292C26.1778 12.9292 26.1452 12.931 26.1132 12.9343C25.7385 12.9742 25.3994 12.8548 25.1329 12.5891L24.5904 12.0482C24.3388 11.7974 24.2192 11.4849 24.2392 11.1308C24.2399 11.116 24.2404 11.1011 24.2404 11.0861C24.2404 10.6525 23.8879 10.301 23.4531 10.301C23.0183 10.301 22.6657 10.6525 22.6657 11.0861C22.6657 11.5196 23.0182 11.8711 23.4531 11.8711C23.4681 11.8711 23.483 11.8706 23.4979 11.8698C23.8531 11.85 24.1664 11.9692 24.4179 12.22L24.9606 12.761C25.2271 13.0268 25.3468 13.3647 25.3068 13.7384C25.3035 13.7703 25.3017 13.8027 25.3017 13.8355C25.3017 14.3361 25.7087 14.7418 26.2107 14.7418C26.2436 14.7418 26.2762 14.7401 26.3082 14.7367C26.6829 14.6969 27.0219 14.8162 27.2884 15.0819L27.6095 15.4021C27.8889 15.6807 28.008 16.0413 27.9492 16.4308C27.9416 16.4811 27.9377 16.5326 27.9377 16.585C27.9377 16.9243 28.1026 17.2251 28.3568 17.4122C28.6748 17.6462 28.8465 17.9852 28.8465 18.3793V20.141C28.8465 20.5508 28.6597 20.9032 28.3201 21.134C28.0159 21.3408 27.8161 21.6891 27.8161 22.0839C27.8161 22.7184 28.3319 23.2328 28.9684 23.2328C29.6048 23.2328 30.1207 22.7184 30.1207 22.0839C30.1207 21.6891 29.921 21.3408 29.6168 21.134C29.2772 20.9033 29.0903 20.5508 29.0903 20.141ZM26.3327 22.8905V21.1287C26.3327 20.7346 26.5043 20.3957 26.8223 20.1617C27.0765 19.9746 27.2415 19.6738 27.2415 19.3345C27.2415 18.7669 26.78 18.3068 26.2108 18.3068C26.1582 18.3068 26.1065 18.3108 26.0561 18.3183C25.6654 18.377 25.3038 18.2583 25.0243 17.9797L24.7032 17.6596C24.4367 17.3939 24.317 17.0559 24.357 16.6822C24.3604 16.6503 24.3622 16.6178 24.3622 16.585C24.3622 16.0845 23.9552 15.6787 23.4532 15.6787C23.4202 15.6787 23.3877 15.6805 23.3557 15.6838C22.981 15.7237 22.6419 15.6043 22.3754 15.3386L21.8329 14.7976C21.5813 14.5469 21.4617 14.2344 21.4817 13.8803C21.4825 13.8655 21.4829 13.8506 21.4829 13.8356C21.4829 13.402 21.1304 13.0505 20.6956 13.0505C20.6805 13.0505 20.6655 13.051 20.6507 13.0518C20.2955 13.0717 19.9821 12.9525 19.7306 12.7016L18.9567 11.93C18.7229 11.6968 18.6047 11.4135 18.6036 11.0839C18.6025 10.7183 18.3049 10.4223 17.9379 10.4223C17.5702 10.4223 17.2722 10.7195 17.2722 11.0861C17.2722 11.452 17.5691 11.7487 17.9357 11.7498C18.2664 11.7509 18.5505 11.8687 18.7842 12.1018L19.5582 12.8735C19.8098 13.1243 19.9294 13.4368 19.9094 13.7908C19.9087 13.8056 19.9082 13.8206 19.9082 13.8356C19.9082 14.2691 20.2607 14.6206 20.6956 14.6206C20.7106 14.6206 20.7255 14.6201 20.7404 14.6193C21.0956 14.5994 21.4089 14.7187 21.6604 14.9695L22.203 15.5105C22.4695 15.7762 22.5893 16.1142 22.5493 16.4879C22.5459 16.5198 22.5441 16.5522 22.5441 16.585C22.5441 17.0856 22.9511 17.4914 23.4532 17.4914C23.4861 17.4914 23.5186 17.4896 23.5506 17.4862C23.9254 17.4464 24.2643 17.5657 24.5309 17.8315L24.852 18.1516C25.1314 18.4302 25.2504 18.7908 25.1916 19.1804C25.184 19.2306 25.1801 19.2821 25.1801 19.3345C25.1801 19.6738 25.345 19.9747 25.5993 20.1617C25.9172 20.3957 26.0889 20.7347 26.0889 21.1287V22.8905C26.0889 23.3003 25.9021 23.6527 25.5625 23.8836C25.2583 24.0904 25.0585 24.4387 25.0585 24.8335C25.0585 25.4679 25.5744 25.9823 26.2108 25.9823C26.8472 25.9823 27.3631 25.4679 27.3631 24.8335C27.3631 24.4386 27.1634 24.0903 26.8592 23.8836C26.5196 23.6527 26.3327 23.3003 26.3327 22.8905ZM23.5751 25.64V23.8782C23.5751 23.4841 23.7467 23.1452 24.0646 22.9112C24.3189 22.7241 24.4838 22.4233 24.4838 22.084C24.4838 21.5164 24.0224 21.0563 23.4532 21.0563C23.4006 21.0563 23.3489 21.0603 23.2985 21.0679C22.9078 21.1265 22.5461 21.0078 22.2667 20.7292L21.9456 20.409C21.6791 20.1433 21.5593 19.8053 21.5993 19.4317C21.6028 19.3998 21.6045 19.3673 21.6045 19.3345C21.6045 18.834 21.1975 18.4282 20.6955 18.4282C20.6626 18.4282 20.63 18.4299 20.5981 18.4333C20.2233 18.4732 19.8843 18.3538 19.6178 18.0881L19.0752 17.547C18.8236 17.2963 18.704 16.9838 18.724 16.6297C18.7248 16.6149 18.7253 16.6 18.7253 16.585C18.7253 16.1514 18.3728 15.8 17.9379 15.8C17.9229 15.8 17.9079 15.8004 17.893 15.8012C17.5379 15.8211 17.2245 15.7019 16.973 15.4511L16.199 14.6794C15.9652 14.4463 15.847 14.163 15.846 13.8334C15.8449 13.4685 15.5484 13.1729 15.1824 13.1718C14.8518 13.1708 14.5677 13.0529 14.3339 12.8198L13.3148 11.8037C13.1026 11.5922 12.9878 11.3428 12.9651 11.0445C12.9439 10.7644 12.7091 10.5436 12.4226 10.5436C12.1221 10.5436 11.8786 10.7864 11.8786 11.086C11.8786 11.3716 12.1 11.6056 12.381 11.6269C12.6801 11.6495 12.9301 11.764 13.1423 11.9755L14.1615 12.9917C14.3953 13.2248 14.5135 13.508 14.5146 13.8377C14.5157 14.2026 14.8121 14.4981 15.1782 14.4993C15.5088 14.5004 15.7929 14.6182 16.0266 14.8513L16.8006 15.623C17.0521 15.8737 17.1718 16.1862 17.1518 16.5403C17.151 16.5551 17.1505 16.57 17.1505 16.585C17.1505 17.0185 17.5031 17.37 17.9379 17.37C17.9529 17.37 17.9679 17.3696 17.9827 17.3688C18.3379 17.3489 18.6513 17.4681 18.9028 17.7189L19.4454 18.2599C19.7119 18.5257 19.8317 18.8636 19.7917 19.2373C19.7883 19.2692 19.7865 19.3016 19.7865 19.3345C19.7865 19.835 20.1935 20.2408 20.6956 20.2408C20.7285 20.2408 20.761 20.2391 20.793 20.2357C21.1677 20.1958 21.5067 20.3152 21.7732 20.5809L22.0944 20.9011C22.3738 21.1797 22.4929 21.5402 22.434 21.9298C22.4265 21.98 22.4225 22.0316 22.4225 22.0839C22.4225 22.4232 22.5875 22.7241 22.8417 22.9112C23.1597 23.1452 23.3313 23.4841 23.3313 23.8782V25.64C23.3313 26.0498 23.1445 26.4022 22.8049 26.633C22.5007 26.8398 22.3009 27.1881 22.3009 27.583C22.3009 28.2175 22.8168 28.7318 23.4532 28.7318C24.0896 28.7318 24.6055 28.2175 24.6055 27.583C24.6055 27.1881 24.4058 26.8398 24.1016 26.633C23.7619 26.4022 23.5751 26.0498 23.5751 25.64ZM16.7515 26.2282L16.4304 25.908C16.1639 25.6423 16.0441 25.3043 16.0841 24.9306C16.0875 24.8988 16.0893 24.8662 16.0893 24.8335C16.0893 24.3329 15.6823 23.9271 15.1802 23.9271C15.1473 23.9271 15.1148 23.9289 15.0828 23.9322C14.708 23.9721 14.369 23.8527 14.1025 23.587L13.5599 23.0461C13.3084 22.7953 13.1888 22.4828 13.2087 22.1287C13.2095 22.1139 13.21 22.099 13.21 22.084C13.21 21.6504 12.8575 21.2989 12.4226 21.2989C12.4076 21.2989 12.3926 21.2994 12.3778 21.3002C12.0226 21.3201 11.7092 21.2009 11.4577 20.95L10.6837 20.1784C10.4499 19.9453 10.3318 19.662 10.3307 19.3324C10.3296 18.9674 10.0331 18.6719 9.66715 18.6708C9.33652 18.6697 9.0524 18.5519 8.81859 18.3188L7.79948 17.3027C7.58735 17.0911 7.47252 16.8418 7.44985 16.5435C7.42862 16.2633 7.1938 16.0425 6.90734 16.0425C6.60687 16.0425 6.36328 16.2854 6.36328 16.585C6.36328 16.8706 6.58473 17.1047 6.86567 17.1259C7.16484 17.1485 7.41485 17.263 7.62701 17.4744L8.64627 18.4907C8.88004 18.7238 8.99826 19.0071 8.99929 19.3367C9.00042 19.7015 9.29687 19.9971 9.66281 19.9983C9.9934 19.9993 10.2776 20.1172 10.5113 20.3503L11.2853 21.122C11.5368 21.3727 11.6565 21.6852 11.6365 22.0393C11.6357 22.0541 11.6352 22.069 11.6352 22.084C11.6352 22.5176 11.9877 22.8691 12.4226 22.8691C12.4376 22.8691 12.4526 22.8686 12.4674 22.8678C12.8226 22.8479 13.1359 22.9672 13.3875 23.218L13.9301 23.759C14.1966 24.0247 14.3164 24.3627 14.2763 24.7363C14.273 24.7683 14.2712 24.8006 14.2712 24.8335C14.2712 25.334 14.6782 25.7398 15.1802 25.7398C15.2132 25.7398 15.2456 25.7381 15.2776 25.7347C15.6524 25.6948 15.9914 25.8142 16.2579 26.0799L16.579 26.4001C16.8585 26.6787 16.9775 27.0392 16.9187 27.4288C16.9112 27.4791 16.9072 27.5306 16.9072 27.583C16.9072 28.1505 17.3686 28.6106 17.9378 28.6106C18.5071 28.6106 18.9685 28.1506 18.9685 27.583C18.9685 27.0154 18.5071 26.5553 17.9378 26.5553C17.8853 26.5553 17.8335 26.5593 17.7832 26.5668C17.3925 26.6255 17.0309 26.5067 16.7515 26.2282Z" fill="#0080C7"/>
<path fill-rule="evenodd" clip-rule="evenodd" d="M20.8166 28.3904V26.6285C20.8166 26.2345 20.9882 25.8955 21.3061 25.6616C21.5604 25.4745 21.7254 25.1736 21.7254 24.8343C21.7254 24.2668 21.2639 23.8067 20.6947 23.8067C20.6421 23.8067 20.5904 23.8106 20.5401 23.8182C20.1493 23.8769 19.7877 23.7581 19.5083 23.4796L19.1872 23.1594C18.9207 22.8937 18.801 22.5557 18.841 22.182C18.8444 22.1502 18.8461 22.1177 18.8461 22.0848C18.8461 21.5843 18.4391 21.1785 17.9371 21.1785C17.9042 21.1785 17.8716 21.1803 17.8396 21.1837C17.4649 21.2235 17.1259 21.1042 16.8594 20.8384L16.3167 20.2974C16.0652 20.0466 15.9456 19.7342 15.9655 19.3801C15.9664 19.3653 15.9668 19.3504 15.9668 19.3353C15.9668 18.9018 15.6143 18.5503 15.1795 18.5503C15.1644 18.5503 15.1495 18.5508 15.1346 18.5516C14.7795 18.5715 14.466 18.4522 14.2146 18.2014L13.4405 17.4297C13.2068 17.1966 13.0886 16.9134 13.0875 16.5837C13.0864 16.2189 12.7899 15.9233 12.424 15.9222C12.0934 15.9211 11.8092 15.8033 11.5755 15.5702L10.5563 14.5541C10.3442 14.3425 10.2294 14.0932 10.2067 13.7949C10.1855 13.5147 9.95063 13.2939 9.66418 13.2939C9.3637 13.2939 9.12012 13.5368 9.12012 13.8364C9.12012 14.122 9.34156 14.3561 9.62254 14.3773C9.92171 14.3999 10.1717 14.5144 10.3839 14.7259L11.4031 15.742C11.6369 15.9751 11.7551 16.2584 11.7562 16.5881C11.7573 16.9529 12.0537 17.2485 12.4196 17.2496C12.7503 17.2507 13.0344 17.3685 13.2682 17.6016L14.0422 18.3733C14.2937 18.6241 14.4134 18.9365 14.3934 19.2906C14.3926 19.3055 14.3921 19.3204 14.3921 19.3353C14.3921 19.7689 14.7446 20.1204 15.1795 20.1204C15.1945 20.1204 15.2095 20.1199 15.2243 20.1191C15.5795 20.0992 15.8929 20.2185 16.1444 20.4692L16.687 21.0103C16.9535 21.276 17.0733 21.614 17.0333 21.9877C17.0299 22.0196 17.0281 22.052 17.0281 22.0848C17.0281 22.5854 17.4351 22.9911 17.9371 22.9911C17.97 22.9911 18.0025 22.9894 18.0345 22.986C18.4093 22.9461 18.7482 23.0655 19.0148 23.3312L19.3359 23.6514C19.6153 23.93 19.7343 24.2905 19.6755 24.6801C19.668 24.7303 19.664 24.7819 19.664 24.8343C19.664 25.1735 19.8289 25.4744 20.0832 25.6615C20.4012 25.8955 20.5728 26.2345 20.5728 26.6285V28.3903C20.5728 28.8001 20.386 29.1525 20.0464 29.3833C19.7422 29.5901 19.5424 29.9385 19.5424 30.3332C19.5424 30.9677 20.0583 31.4821 20.6947 31.4821C21.3311 31.4821 21.847 30.9678 21.847 30.3332C21.847 29.9384 21.6472 29.5901 21.343 29.3833C21.0034 29.1526 20.8166 28.8001 20.8166 28.3904Z" fill="white"/>
</svg>
