<svg width="19" height="18" viewBox="0 0 19 18" fill="none" xmlns="http://www.w3.org/2000/svg">
<path d="M0.240938 5.85461H4.31286V18H0.240938V5.85461ZM2.30416 0C0.910507 0 0 0.906852 0 2.09712C0 3.26292 0.883862 4.19613 2.25087 4.19613H2.27683C3.69713 4.19613 4.58162 3.26287 4.58162 2.09712C4.55498 0.906852 3.69717 0 2.30416 0ZM14.3106 5.5693C12.1491 5.5693 11.1808 6.74765 10.6406 7.57401V5.85461H6.56749C6.62141 6.99399 6.56749 18 6.56749 18H10.6406V11.2172C10.6406 10.8539 10.6673 10.4919 10.7744 10.2317C11.0694 9.50649 11.7395 8.7555 12.8636 8.7555C14.3385 8.7555 14.9275 9.86977 14.9275 11.5017V18H19V11.0356C19 7.30507 16.9913 5.5693 14.3106 5.5693Z" fill="white"/>
</svg>
