<svg width="18" height="18" viewBox="0 0 18 18" fill="none" xmlns="http://www.w3.org/2000/svg">
<path d="M8.29319 11.1298L11.1325 8.2905C11.226 8.19735 11.3002 8.08668 11.3509 7.9648C11.4016 7.84293 11.4278 7.71226 11.4279 7.58027C11.428 7.44828 11.4021 7.31756 11.3517 7.19559C11.3012 7.07362 11.2272 6.96279 11.1339 6.86946C11.0406 6.77613 10.9297 6.70212 10.8078 6.65166C10.6858 6.60121 10.5551 6.57531 10.4231 6.57544C10.2911 6.57557 10.1604 6.60173 10.0385 6.65242C9.91667 6.70311 9.806 6.77734 9.71285 6.87085L6.87354 9.71016C6.78002 9.80331 6.70579 9.91399 6.6551 10.0359C6.60441 10.1577 6.57825 10.2884 6.57813 10.4204C6.578 10.5524 6.6039 10.6831 6.65435 10.8051C6.7048 10.927 6.77881 11.0379 6.87214 11.1312C6.96548 11.2245 7.0763 11.2985 7.19827 11.349C7.32024 11.3995 7.45096 11.4254 7.58296 11.4252C7.71495 11.4251 7.84562 11.3989 7.96749 11.3482C8.08936 11.2976 8.20004 11.2233 8.29319 11.1298Z" fill="white"/>
<path d="M12.3164 2.83974e-05C11.5691 -0.00234044 10.8287 0.143516 10.1381 0.429157C9.44751 0.714798 8.82042 1.13455 8.2931 1.66414L6.39893 3.55832C6.30541 3.65147 6.23119 3.76214 6.18049 3.88402C6.1298 4.00589 6.10365 4.13656 6.10352 4.26855C6.10339 4.40054 6.12929 4.53127 6.17974 4.65323C6.23019 4.77521 6.3042 4.88603 6.39754 4.97936C6.49087 5.07269 6.60169 5.1467 6.72366 5.19716C6.84563 5.24761 6.97635 5.27351 7.10835 5.27338C7.24034 5.27325 7.37101 5.24709 7.49288 5.1964C7.61475 5.14571 7.72543 5.07148 7.81858 4.97797L9.71276 3.08379C10.4034 2.39407 11.3396 2.0068 12.3156 2.00713C13.2916 2.00745 14.2276 2.39534 14.9177 3.08552C15.6079 3.7757 15.9957 4.71168 15.996 5.68772C15.9962 6.66375 15.6089 7.59994 14.9191 8.2905L13.025 10.1847C12.9317 10.2779 12.8578 10.3886 12.8074 10.5103C12.7569 10.6321 12.7309 10.7627 12.7309 10.8945C12.7309 11.0263 12.7569 11.1569 12.8074 11.2787C12.8578 11.4005 12.9317 11.5111 13.025 11.6043C13.1182 11.6975 13.2288 11.7715 13.3506 11.8219C13.4724 11.8724 13.603 11.8984 13.7348 11.8984C13.8666 11.8984 13.9971 11.8724 14.1189 11.8219C14.2407 11.7715 14.3514 11.6976 14.4446 11.6043L16.3388 9.71016C17.1348 8.91482 17.6769 7.90125 17.8966 6.79769C18.1164 5.69414 18.0038 4.5502 17.5732 3.51065C17.1425 2.47109 16.4132 1.58264 15.4775 0.957729C14.5417 0.332814 13.4417 -0.000478263 12.3164 2.83974e-05Z" fill="white"/>
<path d="M5.69028 17.9999C6.43753 18.0024 7.17785 17.8566 7.8684 17.5711C8.55895 17.2856 9.18601 16.8659 9.71329 16.3364L11.6075 14.4423C11.7007 14.349 11.7746 14.2384 11.8251 14.1166C11.8755 13.9948 11.9015 13.8643 11.9015 13.7324C11.9015 13.6006 11.8755 13.4701 11.8251 13.3483C11.7746 13.2265 11.7007 13.1158 11.6075 13.0226C11.5143 12.9294 11.4036 12.8554 11.2818 12.805C11.16 12.7545 11.0295 12.7286 10.8976 12.7286C10.7658 12.7286 10.6353 12.7545 10.5135 12.805C10.3917 12.8554 10.281 12.9294 10.1878 13.0226L8.29363 14.9168C7.95183 15.259 7.54595 15.5305 7.09919 15.7157C6.65242 15.901 6.17353 15.9964 5.68987 15.9966C5.20621 15.9967 4.72727 15.9015 4.2804 15.7165C3.83354 15.5315 3.42752 15.2602 3.08553 14.9182C2.74354 14.5762 2.47229 14.1701 2.28729 13.7233C2.10228 13.2764 2.00714 12.7974 2.0073 12.3138C2.00746 11.8301 2.10292 11.3512 2.28822 10.9045C2.47352 10.4577 2.74504 10.0519 3.08725 9.71008L4.98143 7.81589C5.07495 7.72274 5.14918 7.61207 5.19987 7.4902C5.25056 7.36832 5.27671 7.23765 5.27684 7.10566C5.27697 6.97367 5.25107 6.84295 5.20062 6.72098C5.15017 6.59901 5.07616 6.48818 4.98282 6.39485C4.88949 6.30152 4.77867 6.22751 4.6567 6.17706C4.53473 6.1266 4.40401 6.1007 4.27201 6.10083C4.14002 6.10096 4.00935 6.12712 3.88748 6.17781C3.76561 6.2285 3.65493 6.30273 3.56178 6.39624L1.6676 8.29042C0.871518 9.08568 0.329276 10.0992 0.109509 11.2028C-0.110258 12.3064 0.00233262 13.4504 0.433028 14.4899C0.863723 15.5295 1.59316 16.4179 2.529 17.0427C3.46485 17.6675 4.56503 18.0006 5.69028 17.9999Z" fill="white"/>
</svg>
