<svg width="438" height="244" viewBox="0 0 438 244" fill="none" xmlns="http://www.w3.org/2000/svg">
<path fill-rule="evenodd" clip-rule="evenodd" d="M34.7585 184.453V220.516H40.6892V201.171C40.6892 194.674 45.2286 189.49 51.8183 189.417C58.7008 189.417 62.8009 193.724 62.8009 200.659V220.516H68.8046V200.587C68.8046 190.001 62.0688 183.869 52.9164 183.869C48.0839 183.869 43.691 185.84 40.5427 190.147L40.2499 184.38H34.7583V184.453H34.7585ZM76.1655 184.453V220.516H82.096V201.171C82.096 194.674 86.6355 189.49 93.2251 189.417C100.108 189.417 104.208 193.724 104.208 200.659V220.516H110.212V200.587C110.212 190.001 103.476 183.869 94.3234 183.869C89.491 183.869 85.0983 185.84 81.9497 190.147L81.6569 184.38H76.1653V184.453H76.1655ZM146.86 202.558C146.787 210.15 141.442 215.552 133.974 215.552C126.579 215.552 121.234 210.15 121.234 202.558C121.234 194.528 126.652 189.126 134.047 189.126C141.295 189.125 146.86 194.527 146.86 202.558ZM115.23 202.558C115.23 213.508 123.137 221.173 133.974 221.173C144.883 221.173 152.79 213.508 152.79 202.558C152.79 191.388 145.03 183.651 133.974 183.651C123.21 183.65 115.23 191.388 115.23 202.558ZM395.124 220.516H403.666V183.027H418.034V175.284C404.896 175.284 393.83 175.284 380.757 175.284V183.027H395.124L395.124 220.516ZM364.644 220.516V175.413H356.166V194.448H333.904V175.413H325.361V220.516H333.904V202.32H356.166V220.516H364.644ZM303.23 208.966C300.253 211.934 295.787 213.547 291.839 213.547C280.644 213.547 276.308 205.74 276.243 198.255C276.178 190.706 280.902 182.575 291.839 182.575C295.787 182.575 299.8 183.93 302.777 186.834L308.472 181.349C303.812 176.768 297.988 174.445 291.839 174.445C275.466 174.445 267.765 186.447 267.83 198.255C267.894 209.999 275.013 221.549 291.839 221.549C298.376 221.549 304.394 219.419 309.054 214.838L303.23 208.966ZM252.04 183.543V175.284H218.129V183.543C229.433 183.543 240.736 183.543 252.04 183.543ZM252.04 212.128H226.607V201.932H249.17V193.996C238.823 193.996 228.476 193.996 218.129 193.996V220.516H252.04V212.128ZM179.106 220.516H187.649V183.027H202.016V175.284C188.878 175.284 177.812 175.284 164.739 175.284V183.027H179.106V220.516ZM19.5635 220.516H25.9333V169.415H19.5635V220.516Z" fill="white"/>
<path fill-rule="evenodd" clip-rule="evenodd" d="M289.804 51.2646C286.131 51.2646 283.154 54.2328 283.154 57.894C283.154 61.5553 286.131 64.5237 289.804 64.5237C293.476 64.5237 296.453 61.5555 296.453 57.894C296.453 54.2328 293.475 51.2646 289.804 51.2646ZM274.595 62.548V52.3816C274.595 50.1082 275.585 48.152 277.42 46.8018C278.887 45.7222 279.838 43.9864 279.838 42.0286C279.838 38.7536 277.176 36.0989 273.891 36.0989C273.588 36.0989 273.289 36.1215 272.998 36.1653C270.744 36.5036 268.657 35.8186 267.045 34.2113L265.192 32.364C263.654 30.8308 262.963 28.8804 263.194 26.7243C263.214 26.5402 263.224 26.3527 263.224 26.1636C263.224 23.2754 260.875 20.9336 257.979 20.9336C255.082 20.9336 252.733 23.2754 252.733 26.1636C252.733 29.0519 255.082 31.3933 257.979 31.3933C258.169 31.3933 258.356 31.3831 258.541 31.3636C260.703 31.1335 262.66 31.8224 264.197 33.3556L266.05 35.2034C267.663 36.8104 268.349 38.8911 268.01 41.1389C267.967 41.429 267.944 41.7265 267.944 42.0288C267.944 43.9864 268.895 45.7226 270.363 46.8022C272.198 48.1524 273.188 50.1084 273.188 52.382V62.548C273.188 64.9127 272.11 66.946 270.15 68.2783C268.395 69.4717 267.242 71.4813 267.242 73.7594C267.242 77.4209 270.219 80.3891 273.891 80.3891C277.563 80.3891 280.54 77.4209 280.54 73.7594C280.54 71.4813 279.388 69.4717 277.632 68.2783C275.673 66.9458 274.595 64.9127 274.595 62.548ZM258.682 78.4134V68.247C258.682 65.9734 259.673 64.0176 261.507 62.6674C262.974 61.5878 263.926 59.8518 263.926 57.894C263.926 54.619 261.263 51.9643 257.979 51.9643C257.675 51.9643 257.377 51.9869 257.086 52.0307C254.832 52.369 252.745 51.684 251.132 50.0768L249.28 48.2294C247.742 46.6962 247.051 44.7456 247.282 42.5895C247.301 42.4054 247.311 42.2179 247.311 42.0288C247.311 39.1406 244.963 36.799 242.066 36.799C241.876 36.799 241.688 36.8092 241.504 36.8287C239.341 37.0586 237.385 36.3699 235.847 34.8367L232.716 31.7153C231.265 30.2682 230.574 28.465 230.69 26.4218C230.694 26.3364 230.697 26.2503 230.697 26.1636C230.697 23.6618 228.663 21.6337 226.154 21.6337C223.645 21.6337 221.611 23.6618 221.611 26.1636C221.611 28.6653 223.645 30.6934 226.154 30.6934C226.241 30.6934 226.327 30.6908 226.413 30.6861C228.462 30.5715 230.27 31.2596 231.721 32.7065L234.853 35.8287C236.391 37.362 237.081 39.3121 236.851 41.4682C236.831 41.6523 236.821 41.8394 236.821 42.0288C236.821 44.9171 239.169 47.2585 242.066 47.2585C242.256 47.2585 242.444 47.2484 242.628 47.2289C244.791 46.9991 246.747 47.6876 248.285 49.2206L250.138 51.0684C251.75 52.6758 252.437 54.7565 252.097 57.0045C252.054 57.2942 252.031 57.5917 252.031 57.8938C252.031 59.8516 252.983 61.5878 254.45 62.6672C256.285 64.0174 257.276 65.9739 257.276 68.2474V78.413C257.276 80.7777 256.197 82.8112 254.238 84.1433C252.483 85.3365 251.33 87.3461 251.33 89.6244C251.33 93.2857 254.306 96.2539 257.979 96.2539C261.651 96.2539 264.628 93.2857 264.628 89.6244C264.628 87.3461 263.475 85.3365 261.72 84.1433C259.761 82.8116 258.682 80.778 258.682 78.4134ZM242.77 94.2786V84.1122C242.77 81.8386 243.76 79.8826 245.595 78.5324C247.062 77.453 248.014 75.717 248.014 73.7592C248.014 70.4844 245.351 67.8295 242.066 67.8295C241.763 67.8295 241.465 67.8523 241.174 67.8959C238.92 68.2342 236.833 67.5492 235.22 65.942L233.368 64.0946C231.83 62.5614 231.139 60.6112 231.37 58.4549C231.389 58.2708 231.399 58.0835 231.399 57.8942C231.399 55.006 229.051 52.6644 226.154 52.6644C225.964 52.6644 225.776 52.6746 225.592 52.6941C223.43 52.924 221.473 52.2353 219.935 50.7021L216.805 47.5805C215.353 46.1334 214.663 44.3306 214.778 42.287C214.783 42.2018 214.785 42.1157 214.785 42.029C214.785 39.5272 212.751 37.4991 210.242 37.4991C210.155 37.4991 210.069 37.5017 209.983 37.5064C207.934 37.6214 206.125 36.9333 204.674 35.486L200.208 31.0331C198.859 29.688 198.177 28.0531 198.171 26.1512C198.165 24.0417 196.447 22.3336 194.33 22.3336C192.208 22.3336 190.488 24.0482 190.488 26.1638C190.488 28.275 192.201 29.9872 194.317 29.9937C196.225 29.9998 197.864 30.6798 199.213 32.0247L203.68 36.4778C205.131 37.9249 205.822 39.7278 205.706 41.771C205.702 41.8563 205.699 41.9426 205.699 42.029C205.699 44.5307 207.733 46.5588 210.242 46.5588C210.329 46.5588 210.415 46.5562 210.501 46.5515C212.55 46.4367 214.359 47.125 215.81 48.5719L218.941 51.6939C220.479 53.2272 221.17 55.1775 220.939 57.3336C220.919 57.5177 220.909 57.7048 220.909 57.8942C220.909 60.7825 223.257 63.1241 226.154 63.1241C226.344 63.1241 226.532 63.1138 226.717 63.0945C228.879 62.8645 230.835 63.553 232.373 65.0864L234.226 66.9338C235.838 68.5412 236.525 70.622 236.186 72.8699C236.142 73.1596 236.119 73.4571 236.119 73.7592C236.119 75.717 237.071 77.4534 238.538 78.5326C240.373 79.8828 241.363 81.8389 241.363 84.1124V94.2784C241.363 96.6432 240.286 98.6766 238.326 100.009C236.571 101.202 235.417 103.212 235.417 105.49C235.417 109.151 238.394 112.119 242.067 112.119C245.739 112.119 248.716 109.151 248.716 105.49C248.716 103.212 247.563 101.202 245.808 100.009C243.848 98.6766 242.77 96.6431 242.77 94.2786ZM226.858 110.144V99.9776C226.858 97.704 227.848 95.748 229.683 94.398C231.15 93.3184 232.102 91.5824 232.102 89.6246C232.102 86.3496 229.439 83.6949 226.154 83.6949C225.851 83.6949 225.553 83.7177 225.262 83.7614C223.007 84.0996 220.921 83.4146 219.308 81.8074L217.455 79.9598C215.917 78.4266 215.226 76.4762 215.457 74.3201C215.477 74.136 215.487 73.9489 215.487 73.7592C215.487 70.8712 213.139 68.5296 210.242 68.5296C210.052 68.5296 209.864 68.5396 209.68 68.5591C207.517 68.7892 205.561 68.1003 204.023 66.5671L200.892 63.4453C199.441 61.9982 198.751 60.1954 198.866 58.152C198.87 58.0666 198.873 57.9807 198.873 57.894C198.873 55.3922 196.839 53.3641 194.33 53.3641C194.243 53.3641 194.157 53.3669 194.071 53.3714C192.022 53.4864 190.213 52.7983 188.762 51.351L184.296 46.8983C182.947 45.5532 182.265 43.9183 182.259 42.0164C182.252 39.911 180.542 38.2055 178.43 38.1992C176.522 38.1931 174.883 37.5129 173.534 36.168L167.653 30.3044C166.429 29.084 165.766 27.6452 165.635 25.924C165.513 24.3073 164.158 23.0333 162.505 23.0333C160.771 23.0333 159.366 24.4347 159.366 26.1633C159.366 27.8114 160.644 29.1618 162.265 29.2843C163.991 29.4147 165.434 30.0754 166.658 31.2958L172.539 37.1596C173.888 38.5047 174.57 40.1392 174.576 42.0414C174.583 44.1467 176.293 45.8522 178.405 45.8589C180.313 45.865 181.952 46.545 183.301 47.8899L187.767 52.343C189.219 53.7899 189.909 55.5928 189.794 57.6359C189.789 57.7217 189.786 57.8076 189.786 57.894C189.786 60.3957 191.821 62.4236 194.33 62.4236C194.417 62.4236 194.503 62.4212 194.589 62.4165C196.638 62.3017 198.446 62.99 199.897 64.4369L203.029 67.5589C204.566 69.0924 205.257 71.0423 205.026 73.1986C205.007 73.3827 204.997 73.5698 204.997 73.7592C204.997 76.6475 207.345 78.9891 210.242 78.9891C210.432 78.9891 210.62 78.9792 210.804 78.9595C212.967 78.7295 214.923 79.4182 216.461 80.9514L218.314 82.799C219.926 84.4066 220.613 86.4872 220.274 88.7351C220.23 89.0248 220.207 89.3223 220.207 89.6244C220.207 91.582 221.159 93.3184 222.626 94.398C224.461 95.748 225.451 97.704 225.451 99.9776V110.144C225.451 112.508 224.374 114.542 222.414 115.874C220.659 117.067 219.505 119.077 219.505 121.355C219.505 125.017 222.482 127.985 226.155 127.985C229.827 127.985 232.804 125.017 232.804 121.355C232.804 119.077 231.651 117.067 229.896 115.874C227.936 114.542 226.858 112.509 226.858 110.144ZM187.484 113.538L185.631 111.69C184.093 110.157 183.402 108.207 183.633 106.05C183.653 105.867 183.663 105.679 183.663 105.49C183.663 102.602 181.314 100.26 178.417 100.26C178.227 100.26 178.04 100.27 177.855 100.29C175.693 100.52 173.736 99.8309 172.198 98.2977L169.067 95.1761C167.616 93.7292 166.926 91.9262 167.041 89.8828C167.046 89.7974 167.048 89.7115 167.048 89.6246C167.048 87.1228 165.014 85.0947 162.505 85.0947C162.418 85.0947 162.332 85.0975 162.246 85.102C160.197 85.217 158.388 84.5289 156.937 83.0816L152.471 78.6289C151.122 77.2838 150.44 75.6492 150.434 73.7472C150.428 71.6414 148.717 69.9363 146.605 69.9296C144.697 69.9235 143.058 69.2433 141.709 67.8984L135.828 62.0352C134.604 60.8146 133.942 59.3758 133.811 57.6546C133.688 56.0379 132.333 54.7639 130.68 54.7639C128.947 54.7639 127.541 56.1653 127.541 57.894C127.541 59.542 128.819 60.8926 130.44 61.0149C132.166 61.1453 133.609 61.806 134.833 63.0264L140.714 68.8904C142.063 70.2355 142.746 71.87 142.751 73.772C142.758 75.8773 144.469 77.5828 146.58 77.5896C148.488 77.5956 150.128 78.2758 151.476 79.6207L155.942 84.0738C157.394 85.5205 158.084 87.3236 157.969 89.3668C157.964 89.4525 157.962 89.5384 157.962 89.6248C157.962 92.1267 159.996 94.1548 162.505 94.1548C162.592 94.1548 162.678 94.152 162.764 94.1477C164.813 94.0327 166.621 94.7211 168.072 96.1682L171.204 99.2899C172.742 100.823 173.432 102.774 173.202 104.929C173.182 105.114 173.172 105.301 173.172 105.49C173.172 108.378 175.52 110.72 178.417 110.72C178.607 110.72 178.795 110.71 178.979 110.69C181.142 110.46 183.098 111.149 184.636 112.682L186.489 114.53C188.101 116.137 188.788 118.218 188.449 120.466C188.405 120.756 188.382 121.053 188.382 121.356C188.382 124.63 191.045 127.285 194.329 127.285C197.614 127.285 200.277 124.631 200.277 121.356C200.277 118.081 197.614 115.426 194.329 115.426C194.026 115.426 193.728 115.448 193.437 115.492C191.183 115.83 189.096 115.145 187.484 113.538Z" fill="#0080C7"/>
<path fill-rule="evenodd" clip-rule="evenodd" d="M210.944 126.009V115.843C210.944 113.569 211.935 111.613 213.769 110.263C215.236 109.183 216.188 107.448 216.188 105.49C216.188 102.215 213.525 99.5599 210.241 99.5599C209.937 99.5599 209.639 99.5827 209.348 99.6263C207.094 99.9648 205.007 99.2795 203.395 97.6723L201.542 95.8248C200.004 94.2916 199.313 92.3414 199.544 90.1851C199.564 90.0012 199.574 89.8139 199.574 89.6243C199.574 86.7362 197.225 84.3946 194.328 84.3946C194.139 84.3946 193.951 84.4047 193.766 84.4242C191.604 84.6544 189.648 83.9655 188.11 82.4323L184.979 79.3105C183.527 77.8634 182.837 76.0605 182.952 74.0172C182.957 73.932 182.96 73.8461 182.96 73.7589C182.96 71.2574 180.925 69.2293 178.416 69.2293C178.329 69.2293 178.243 69.2321 178.157 69.2364C176.108 69.3514 174.3 68.6633 172.849 67.216L168.382 62.7631C167.033 61.418 166.351 59.7835 166.345 57.8813C166.339 55.776 164.628 54.0707 162.516 54.0642C160.609 54.0581 158.969 53.3779 157.62 52.033L151.74 46.1698C150.515 44.949 149.853 43.5104 149.722 41.7892C149.6 40.1723 148.244 38.8984 146.592 38.8984C144.858 38.8984 143.452 40.2998 143.452 42.0285C143.452 43.6766 144.73 45.0272 146.351 45.1495C148.078 45.2799 149.52 45.9406 150.744 47.161L156.626 53.0244C157.975 54.3695 158.657 56.0041 158.663 57.9063C158.669 60.0117 160.38 61.7172 162.491 61.7237C164.399 61.7298 166.039 62.4098 167.388 63.7547L171.854 68.208C173.305 69.6549 173.996 71.4577 173.88 73.5009C173.876 73.5867 173.873 73.6726 173.873 73.7589C173.873 76.2607 175.907 78.289 178.416 78.289C178.503 78.289 178.589 78.2862 178.675 78.2815C180.725 78.1667 182.533 78.855 183.984 80.3019L187.115 83.4241C188.653 84.9573 189.344 86.9077 189.113 89.0636C189.094 89.2477 189.083 89.4348 189.083 89.6241C189.083 92.5125 191.432 94.8539 194.328 94.8539C194.519 94.8539 194.706 94.8439 194.891 94.8242C197.053 94.5942 199.009 95.283 200.547 96.8162L202.4 98.6638C204.012 100.271 204.699 102.352 204.36 104.6C204.316 104.889 204.293 105.187 204.293 105.489C204.293 107.447 205.245 109.183 206.712 110.263C208.547 111.613 209.537 113.569 209.537 115.843V126.009C209.537 128.373 208.46 130.407 206.5 131.739C204.745 132.932 203.591 134.942 203.591 137.22C203.591 140.881 206.568 143.849 210.241 143.849C213.913 143.849 216.89 140.881 216.89 137.22C216.89 134.942 215.737 132.932 213.982 131.739C212.022 130.407 210.944 128.374 210.944 126.009Z" fill="white"/>
</svg>
