<svg width="60" height="70" viewBox="0 0 60 70" fill="none" xmlns="http://www.w3.org/2000/svg">
<path fill-rule="evenodd" clip-rule="evenodd" d="M8.7868 8.60278C-2.92893 20.0731 -2.92893 38.6703 8.78677 50.1406L28.4138 69.3566C29.2899 70.2144 30.71 70.2144 31.5862 69.3566L51.2132 50.1406C62.9289 38.6703 62.9289 20.0731 51.2132 8.60278C39.4973 -2.86759 20.5025 -2.86759 8.7868 8.60278ZM16.8795 28.6048C16.8795 21.3275 22.9052 15.4281 30.3381 15.4281C37.771 15.4281 43.7967 21.3275 43.7967 28.6048C43.7967 35.8821 37.771 41.7815 30.3381 41.7815C22.9052 41.7815 16.8795 35.8821 16.8795 28.6048Z" fill="black"/>
<circle cx="30" cy="32" r="21" fill="black"/>
<path fill-rule="evenodd" clip-rule="evenodd" d="M44.7114 25.6197C43.9999 25.6197 43.4231 26.1948 43.4231 26.9041C43.4231 27.6135 43.9998 28.1887 44.7114 28.1887C45.4229 28.1887 45.9997 27.6136 45.9997 26.9041C45.9997 26.1948 45.4229 25.6197 44.7114 25.6197ZM41.7647 27.8059V25.8361C41.7647 25.3956 41.9565 25.0166 42.312 24.755C42.5962 24.5458 42.7806 24.2095 42.7806 23.8301C42.7806 23.1956 42.2647 22.6813 41.6283 22.6813C41.5696 22.6813 41.5118 22.6856 41.4554 22.6941C41.0186 22.7597 40.6142 22.6269 40.3018 22.3155L39.9428 21.9576C39.6449 21.6605 39.511 21.2826 39.5557 20.8649C39.5595 20.8292 39.5615 20.7929 39.5615 20.7562C39.5615 20.1967 39.1065 19.7429 38.5452 19.7429C37.9839 19.7429 37.5289 20.1967 37.5289 20.7562C37.5289 21.3159 37.9839 21.7695 38.5452 21.7695C38.582 21.7695 38.6184 21.7676 38.6542 21.7638C39.0732 21.7192 39.4522 21.8527 39.7501 22.1497L40.1092 22.5077C40.4215 22.8191 40.5546 23.2223 40.4889 23.6578C40.4804 23.714 40.476 23.7716 40.476 23.8302C40.476 24.2095 40.6604 24.5459 40.9447 24.7551C41.3002 25.0167 41.4921 25.3957 41.4921 25.8362V27.8059C41.4921 28.264 41.2832 28.658 40.9036 28.9161C40.5634 29.1473 40.34 29.5367 40.34 29.9781C40.34 30.6875 40.9168 31.2626 41.6284 31.2626C42.3398 31.2626 42.9166 30.6875 42.9166 29.9781C42.9166 29.5367 42.6933 29.1473 42.3532 28.9161C41.9735 28.6579 41.7647 28.264 41.7647 27.8059ZM38.6816 30.8798V28.9101C38.6816 28.4696 38.8735 28.0906 39.229 27.829C39.5132 27.6198 39.6975 27.2835 39.6975 26.9041C39.6975 26.2696 39.1817 25.7552 38.5452 25.7552C38.4865 25.7552 38.4287 25.7596 38.3723 25.7681C37.9355 25.8336 37.5312 25.7009 37.2188 25.3895L36.8598 25.0316C36.5618 24.7345 36.4279 24.3566 36.4726 23.9388C36.4765 23.9032 36.4784 23.8668 36.4784 23.8302C36.4784 23.2706 36.0234 22.8169 35.4621 22.8169C35.4253 22.8169 35.3889 22.8189 35.3531 22.8226C34.9341 22.8672 34.5551 22.7338 34.2571 22.4367L33.6506 21.8319C33.3693 21.5515 33.2356 21.2021 33.258 20.8063C33.2588 20.7897 33.2593 20.7731 33.2593 20.7562C33.2593 20.2715 32.8652 19.8786 32.3791 19.8786C31.8929 19.8786 31.4988 20.2715 31.4988 20.7562C31.4988 21.241 31.8929 21.6339 32.3791 21.6339C32.3959 21.6339 32.4126 21.6334 32.4292 21.6325C32.8263 21.6103 33.1766 21.7436 33.4578 22.024L34.0645 22.6289C34.3625 22.926 34.4963 23.3038 34.4516 23.7216C34.4478 23.7572 34.4458 23.7935 34.4458 23.8302C34.4458 24.3898 34.9008 24.8435 35.4621 24.8435C35.4989 24.8435 35.5353 24.8415 35.5711 24.8377C35.9901 24.7932 36.369 24.9266 36.667 25.2236L37.026 25.5816C37.3384 25.8931 37.4715 26.2962 37.4057 26.7318C37.3973 26.7879 37.3929 26.8456 37.3929 26.9041C37.3929 27.2834 37.5773 27.6198 37.8615 27.829C38.217 28.0906 38.409 28.4696 38.409 28.9101V30.8798C38.409 31.3379 38.2001 31.7319 37.8205 31.99C37.4804 32.2212 37.2569 32.6106 37.2569 33.052C37.2569 33.7614 37.8337 34.3365 38.5453 34.3365C39.2567 34.3365 39.8335 33.7614 39.8335 33.052C39.8335 32.6106 39.6102 32.2212 39.2701 31.99C38.8905 31.732 38.6816 31.338 38.6816 30.8798ZM35.5985 33.9538V31.984C35.5985 31.5435 35.7904 31.1645 36.1459 30.9029C36.4301 30.6938 36.6145 30.3574 36.6145 29.9781C36.6145 29.3436 36.0986 28.8292 35.4622 28.8292C35.4034 28.8292 35.3456 28.8336 35.2893 28.842C34.8525 28.9076 34.4482 28.7749 34.1357 28.4635L33.7768 28.1055C33.4788 27.8084 33.3449 27.4306 33.3897 27.0128C33.3934 26.9771 33.3954 26.9408 33.3954 26.9042C33.3954 26.3446 32.9404 25.8909 32.3792 25.8909C32.3423 25.8909 32.3059 25.8928 32.2702 25.8966C31.8512 25.9412 31.4722 25.8077 31.1742 25.5107L30.5676 24.9059C30.2864 24.6255 30.1527 24.2762 30.175 23.8802C30.1759 23.8637 30.1764 23.847 30.1764 23.8302C30.1764 23.3455 29.7823 22.9525 29.2962 22.9525C29.2793 22.9525 29.2626 22.9531 29.246 22.954C28.8489 22.9762 28.4985 22.8429 28.2173 22.5625L27.352 21.6997C27.0906 21.4391 26.9585 21.1224 26.9573 20.7538C26.956 20.3451 26.6233 20.0142 26.213 20.0142C25.802 20.0142 25.4688 20.3464 25.4688 20.7563C25.4688 21.1653 25.8007 21.4971 26.2106 21.4984C26.5803 21.4995 26.8979 21.6313 27.1592 21.8919L28.0246 22.7547C28.3058 23.035 28.4396 23.3844 28.4172 23.7802C28.4164 23.7968 28.4158 23.8135 28.4158 23.8302C28.4158 24.3149 28.8099 24.7079 29.2961 24.7079C29.3129 24.7079 29.3296 24.7074 29.3463 24.7065C29.7433 24.6842 30.0937 24.8176 30.3749 25.0979L30.9815 25.7028C31.2795 25.9999 31.4133 26.3778 31.3686 26.7956C31.3648 26.8312 31.3628 26.8675 31.3628 26.9042C31.3628 27.4638 31.8178 27.9175 32.3792 27.9175C32.416 27.9175 32.4524 27.9155 32.4881 27.9117C32.9071 27.8672 33.2861 28.0006 33.5841 28.2977L33.9431 28.6556C34.2554 28.9671 34.3885 29.3702 34.3228 29.8058C34.3143 29.8619 34.3099 29.9195 34.3099 29.9781C34.3099 30.3574 34.4943 30.6938 34.7786 30.9029C35.134 31.1645 35.3259 31.5435 35.3259 31.984V33.9537C35.3259 34.4119 35.1171 34.8059 34.7374 35.064C34.3973 35.2952 34.1739 35.6846 34.1739 36.126C34.1739 36.8354 34.7507 37.4105 35.4622 37.4105C36.1737 37.4105 36.7505 36.8354 36.7505 36.126C36.7505 35.6846 36.5272 35.2952 36.1871 35.064C35.8074 34.8059 35.5985 34.4119 35.5985 33.9538ZM32.5155 37.0278V35.058C32.5155 34.6175 32.7074 34.2385 33.0628 33.9769C33.3471 33.7677 33.5315 33.4314 33.5315 33.052C33.5315 32.4175 33.0156 31.9032 32.3792 31.9032C32.3204 31.9032 32.2626 31.9076 32.2063 31.916C31.7694 31.9816 31.3651 31.8488 31.0527 31.5374L30.6937 31.1795C30.3957 30.8824 30.2618 30.5045 30.3066 30.0867C30.3104 30.0511 30.3123 30.0148 30.3123 29.9781C30.3123 29.4185 29.8573 28.9648 29.2961 28.9648C29.2592 28.9648 29.2228 28.9667 29.1871 28.9705C28.7682 29.0151 28.3891 28.8816 28.0912 28.5846L27.4845 27.9797C27.2033 27.6993 27.0696 27.35 27.0919 26.9541C27.0928 26.9376 27.0933 26.9209 27.0933 26.9041C27.0933 26.4194 26.6992 26.0264 26.213 26.0264C26.1962 26.0264 26.1795 26.027 26.1629 26.0279C25.7658 26.0501 25.4154 25.9168 25.1342 25.6364L24.269 24.7737C24.0076 24.5131 23.8754 24.1963 23.8742 23.8278C23.873 23.4199 23.5415 23.0894 23.1324 23.0882C22.7627 23.087 22.4451 22.9552 22.1837 22.6946L21.0443 21.5585C20.8071 21.3221 20.6787 21.0433 20.6534 20.7098C20.6297 20.3966 20.3671 20.1497 20.0469 20.1497C19.7109 20.1497 19.4386 20.4213 19.4386 20.7562C19.4386 21.0755 19.6862 21.3372 20.0003 21.3609C20.3348 21.3862 20.6143 21.5142 20.8515 21.7506L21.991 22.8868C22.2523 23.1474 22.3846 23.4641 22.3857 23.8326C22.387 24.2405 22.7184 24.571 23.1276 24.5723C23.4972 24.5735 23.8149 24.7052 24.0762 24.9658L24.9415 25.8286C25.2227 26.1089 25.3565 26.4583 25.3341 26.8541C25.3333 26.8707 25.3327 26.8874 25.3327 26.9041C25.3327 27.3888 25.7269 27.7818 26.213 27.7818C26.2298 27.7818 26.2465 27.7813 26.2632 27.7804C26.6602 27.7581 27.0106 27.8915 27.2918 28.1718L27.8985 28.7767C28.1964 29.0739 28.3303 29.4517 28.2856 29.8695C28.2818 29.9051 28.2798 29.9414 28.2798 29.9781C28.2798 30.5377 28.7348 30.9914 29.2961 30.9914C29.3329 30.9914 29.3693 30.9895 29.405 30.9856C29.824 30.9411 30.203 31.0745 30.501 31.3716L30.86 31.7296C31.1724 32.041 31.3055 32.4442 31.2397 32.8797C31.2313 32.9358 31.2269 32.9935 31.2269 33.052C31.2269 33.4313 31.4113 33.7677 31.6956 33.9769C32.051 34.2385 32.2429 34.6175 32.2429 35.058V37.0277C32.2429 37.4859 32.0341 37.8798 31.6544 38.1379C31.3143 38.3692 31.0909 38.7586 31.0909 39.2C31.0909 39.9094 31.6677 40.4845 32.3792 40.4845C33.0907 40.4845 33.6675 39.9094 33.6675 39.2C33.6675 38.7586 33.4442 38.3692 33.1041 38.1379C32.7244 37.8799 32.5155 37.4859 32.5155 37.0278ZM24.8866 37.6854L24.5276 37.3273C24.2296 37.0303 24.0958 36.6524 24.1405 36.2346C24.1443 36.199 24.1463 36.1627 24.1463 36.126C24.1463 35.5664 23.6913 35.1127 23.1299 35.1127C23.0931 35.1127 23.0567 35.1147 23.021 35.1184C22.602 35.163 22.223 35.0296 21.925 34.7325L21.3184 34.1277C21.0371 33.8473 20.9034 33.498 20.9257 33.1021C20.9266 33.0855 20.9272 33.0689 20.9272 33.052C20.9272 32.5673 20.533 32.1744 20.0469 32.1744C20.0301 32.1744 20.0133 32.1749 19.9967 32.1758C19.5997 32.1981 19.2493 32.0647 18.9681 31.7843L18.1028 30.9216C17.8414 30.661 17.7093 30.3443 17.7081 29.9757C17.7068 29.5677 17.3754 29.2374 16.9662 29.2361C16.5966 29.2349 16.2789 29.1031 16.0175 28.8425L14.8781 27.7065C14.641 27.47 14.5126 27.1912 14.4873 26.8578C14.4635 26.5445 14.201 26.2977 13.8807 26.2977C13.5448 26.2977 13.2725 26.5692 13.2725 26.9041C13.2725 27.2234 13.52 27.4851 13.8341 27.5088C14.1686 27.5341 14.4481 27.6621 14.6853 27.8986L15.8249 29.0347C16.0862 29.2953 16.2184 29.612 16.2195 29.9805C16.2208 30.3885 16.5522 30.7189 16.9614 30.7202C17.331 30.7214 17.6487 30.8532 17.91 31.1138L18.7753 31.9766C19.0566 32.2569 19.1903 32.6062 19.168 33.0021C19.1671 33.0187 19.1666 33.0354 19.1666 33.0521C19.1666 33.5368 19.5607 33.9298 20.0468 33.9298C20.0637 33.9298 20.0804 33.9292 20.097 33.9284C20.4941 33.9061 20.8444 34.0395 21.1256 34.3199L21.7323 34.9247C22.0302 35.2218 22.1641 35.5997 22.1194 36.0174C22.1156 36.0531 22.1136 36.0893 22.1136 36.1261C22.1136 36.6856 22.5686 37.1393 23.1299 37.1393C23.1667 37.1393 23.203 37.1374 23.2388 37.1336C23.6578 37.089 24.0368 37.2225 24.3347 37.5196L24.6938 37.8775C25.0062 38.189 25.1393 38.5921 25.0736 39.0277C25.0651 39.0838 25.0606 39.1414 25.0606 39.2C25.0606 39.8345 25.5765 40.3489 26.2129 40.3489C26.8494 40.3489 27.3653 39.8346 27.3653 39.2C27.3653 38.5655 26.8494 38.0511 26.2129 38.0511C26.1542 38.0511 26.0964 38.0555 26.0401 38.0639C25.6033 38.1295 25.199 37.9967 24.8866 37.6854Z" fill="#0080C7"/>
<path fill-rule="evenodd" clip-rule="evenodd" d="M29.4313 40.1026V38.1328C29.4313 37.6923 29.6232 37.3133 29.9786 37.0518C30.2629 36.8426 30.4473 36.5063 30.4473 36.1269C30.4473 35.4924 29.9314 34.978 29.295 34.978C29.2362 34.978 29.1784 34.9824 29.1221 34.9909C28.6853 35.0564 28.2809 34.9237 27.9686 34.6123L27.6096 34.2543C27.3117 33.9572 27.1778 33.5794 27.2225 33.1616C27.2263 33.126 27.2282 33.0897 27.2282 33.0529C27.2282 32.4934 26.7732 32.0397 26.212 32.0397C26.1752 32.0397 26.1388 32.0416 26.103 32.0454C25.6841 32.09 25.305 31.9565 25.0071 31.6594L24.4004 31.0546C24.1192 30.7742 23.9855 30.4249 24.0078 30.029C24.0087 30.0125 24.0092 29.9958 24.0092 29.979C24.0092 29.4943 23.6151 29.1013 23.1289 29.1013C23.1121 29.1013 23.0954 29.1019 23.0788 29.1027C22.6817 29.125 22.3313 28.9917 22.0502 28.7112L21.1848 27.8485C20.9234 27.5878 20.7913 27.2712 20.7901 26.9026C20.7889 26.4947 20.4574 26.1643 20.0483 26.163C19.6786 26.1618 19.3609 26.0301 19.0996 25.7695L17.9602 24.6335C17.723 24.3969 17.5946 24.1182 17.5693 23.7847C17.5456 23.4714 17.283 23.2246 16.9628 23.2246C16.6268 23.2246 16.3545 23.4961 16.3545 23.8311C16.3545 24.1504 16.6021 24.4121 16.9162 24.4358C17.2507 24.461 17.5302 24.5891 17.7674 24.8255L18.9069 25.9616C19.1683 26.2222 19.3004 26.5389 19.3016 26.9075C19.3028 27.3154 19.6343 27.6458 20.0434 27.6471C20.4131 27.6483 20.7307 27.78 20.9921 28.0406L21.8575 28.9034C22.1387 29.1838 22.2724 29.5331 22.2501 29.929C22.2492 29.9456 22.2487 29.9622 22.2487 29.979C22.2487 30.4637 22.6427 30.8567 23.1289 30.8567C23.1458 30.8567 23.1625 30.8561 23.1791 30.8552C23.5762 30.833 23.9265 30.9663 24.2077 31.2467L24.8144 31.8516C25.1123 32.1487 25.2462 32.5266 25.2015 32.9443C25.1977 32.98 25.1957 33.0162 25.1957 33.0529C25.1957 33.6125 25.6507 34.0662 26.212 34.0662C26.2488 34.0662 26.2852 34.0643 26.3209 34.0604C26.7399 34.0159 27.1188 34.1493 27.4168 34.4464L27.7759 34.8044C28.0882 35.1158 28.2213 35.5189 28.1556 35.9545C28.1471 36.0106 28.1427 36.0683 28.1427 36.1268C28.1427 36.5061 28.3271 36.8425 28.6114 37.0517C28.9669 37.3133 29.1588 37.6923 29.1588 38.1328V40.1025C29.1588 40.5607 28.9499 40.9546 28.5702 41.2127C28.2301 41.4439 28.0067 41.8334 28.0067 42.2747C28.0067 42.9841 28.5835 43.5592 29.295 43.5592C30.0065 43.5592 30.5833 42.9842 30.5833 42.2747C30.5833 41.8333 30.3599 41.4439 30.0198 41.2127C29.6401 40.9548 29.4313 40.5607 29.4313 40.1026Z" fill="white"/>
</svg>
