<svg width="1920" height="14" viewBox="0 0 1920 14" fill="none" xmlns="http://www.w3.org/2000/svg">
<line x1="0.5" y1="2" x2="0.499999" y2="12" stroke="white"/>
<line x1="20.5" y1="2" x2="20.5" y2="12" stroke="white"/>
<line x1="40.5" y1="2" x2="40.5" y2="12" stroke="white"/>
<line x1="60.5" y1="2" x2="60.5" y2="12" stroke="white"/>
<line x1="80.5" y1="2" x2="80.5" y2="12" stroke="white"/>
<line x1="100.5" y1="2" x2="100.5" y2="12" stroke="white"/>
<line x1="120.5" y1="2" x2="120.5" y2="12" stroke="white"/>
<line x1="140.5" y1="2" x2="140.5" y2="12" stroke="white"/>
<line x1="160.5" y1="2" x2="160.5" y2="12" stroke="white"/>
<line x1="180.5" y1="2" x2="180.5" y2="12" stroke="white"/>
<line x1="200.5" y1="2" x2="200.5" y2="12" stroke="white"/>
<line x1="220.5" y1="2" x2="220.5" y2="12" stroke="white"/>
<line x1="240.5" y1="2" x2="240.5" y2="12" stroke="white"/>
<line x1="260.5" y1="2" x2="260.5" y2="12" stroke="white"/>
<line x1="280.5" y1="2" x2="280.5" y2="12" stroke="white"/>
<line x1="300.5" y1="2" x2="300.5" y2="12" stroke="white"/>
<line x1="320.5" y1="2" x2="320.5" y2="12" stroke="white"/>
<line x1="340.5" y1="2" x2="340.5" y2="12" stroke="white"/>
<line x1="360.5" y1="2" x2="360.5" y2="12" stroke="white"/>
<line x1="380.5" y1="2" x2="380.5" y2="12" stroke="white"/>
<line x1="400.5" y1="2" x2="400.5" y2="12" stroke="white"/>
<line x1="420.5" y1="2" x2="420.5" y2="12" stroke="white"/>
<line x1="440.5" y1="2" x2="440.5" y2="12" stroke="white"/>
<line x1="460.5" y1="2" x2="460.5" y2="12" stroke="white"/>
<line x1="480.5" y1="2" x2="480.5" y2="12" stroke="white"/>
<line x1="500.5" y1="2" x2="500.5" y2="12" stroke="white"/>
<line x1="520.5" y1="2" x2="520.5" y2="12" stroke="white"/>
<line x1="540.5" y1="2" x2="540.5" y2="12" stroke="white"/>
<line x1="560.5" y1="2" x2="560.5" y2="12" stroke="white"/>
<line x1="580.5" y1="2" x2="580.5" y2="12" stroke="white"/>
<line x1="600.5" y1="2" x2="600.5" y2="12" stroke="white"/>
<line x1="620.5" y1="2" x2="620.5" y2="12" stroke="white"/>
<line x1="640.5" y1="2" x2="640.5" y2="12" stroke="white"/>
<line x1="660.5" y1="2" x2="660.5" y2="12" stroke="white"/>
<line x1="680.5" y1="2" x2="680.5" y2="12" stroke="white"/>
<line x1="700.5" y1="2" x2="700.5" y2="12" stroke="white"/>
<line x1="720.5" y1="2" x2="720.5" y2="12" stroke="white"/>
<line x1="740.5" y1="2" x2="740.5" y2="12" stroke="white"/>
<line x1="760.5" y1="2" x2="760.5" y2="12" stroke="white"/>
<line x1="780.5" y1="2" x2="780.5" y2="12" stroke="white"/>
<line x1="800.5" y1="2" x2="800.5" y2="12" stroke="white"/>
<line x1="820.5" y1="2" x2="820.5" y2="12" stroke="white"/>
<line x1="840.5" y1="2" x2="840.5" y2="12" stroke="white"/>
<line x1="860.5" y1="2" x2="860.5" y2="12" stroke="white"/>
<line x1="880.5" y1="2" x2="880.5" y2="12" stroke="white"/>
<line x1="900.5" y1="2" x2="900.5" y2="12" stroke="white"/>
<line x1="920.5" y1="2" x2="920.5" y2="12" stroke="white"/>
<line x1="940.5" y1="2" x2="940.5" y2="12" stroke="white"/>
<line x1="960.5" y1="2" x2="960.5" y2="12" stroke="white"/>
<line x1="980.5" y1="2" x2="980.5" y2="12" stroke="white"/>
<line x1="1000.5" y1="2" x2="1000.5" y2="12" stroke="white"/>
<line x1="1020.5" y1="2" x2="1020.5" y2="12" stroke="white"/>
<line x1="1040.5" y1="2" x2="1040.5" y2="12" stroke="white"/>
<line x1="1060.5" y1="2" x2="1060.5" y2="12" stroke="white"/>
<line x1="1080.5" y1="2" x2="1080.5" y2="12" stroke="white"/>
<line x1="1100.5" y1="2" x2="1100.5" y2="12" stroke="white"/>
<line x1="1120.5" y1="2" x2="1120.5" y2="12" stroke="white"/>
<line x1="1140.5" y1="2" x2="1140.5" y2="12" stroke="white"/>
<line x1="1160.5" y1="2" x2="1160.5" y2="12" stroke="white"/>
<line x1="1180.5" y1="2" x2="1180.5" y2="12" stroke="white"/>
<line x1="1200.5" y1="2" x2="1200.5" y2="12" stroke="white"/>
<line x1="1220.5" y1="2" x2="1220.5" y2="12" stroke="white"/>
<line x1="1240.5" y1="2" x2="1240.5" y2="12" stroke="white"/>
<line x1="1260.5" y1="2" x2="1260.5" y2="12" stroke="white"/>
<line x1="1280.5" y1="2" x2="1280.5" y2="12" stroke="white"/>
<line x1="1300.5" y1="2" x2="1300.5" y2="12" stroke="white"/>
<line x1="1320.5" y1="2" x2="1320.5" y2="12" stroke="white"/>
<line x1="1340.5" y1="2" x2="1340.5" y2="12" stroke="white"/>
<line x1="1360.5" y1="2" x2="1360.5" y2="12" stroke="white"/>
<line x1="1380.5" y1="2" x2="1380.5" y2="12" stroke="white"/>
<line x1="1400.5" y1="2" x2="1400.5" y2="12" stroke="white"/>
<line x1="1420.5" y1="2" x2="1420.5" y2="12" stroke="white"/>
<line x1="1440.5" y1="2" x2="1440.5" y2="12" stroke="white"/>
<line x1="1460.5" y1="2" x2="1460.5" y2="12" stroke="white"/>
<line x1="1480.5" y1="2" x2="1480.5" y2="12" stroke="white"/>
<line x1="1500.5" y1="2" x2="1500.5" y2="12" stroke="white"/>
<line x1="1520.5" y1="2" x2="1520.5" y2="12" stroke="white"/>
<line x1="1540.5" y1="2" x2="1540.5" y2="12" stroke="white"/>
<line x1="1560.5" y1="2" x2="1560.5" y2="12" stroke="white"/>
<line x1="1580.5" y1="2" x2="1580.5" y2="12" stroke="white"/>
<line x1="1600.5" y1="2" x2="1600.5" y2="12" stroke="white"/>
<line x1="1620.5" y1="2" x2="1620.5" y2="12" stroke="white"/>
<line x1="1640.5" y1="2" x2="1640.5" y2="12" stroke="white"/>
<line x1="1660.5" y1="2" x2="1660.5" y2="12" stroke="white"/>
<line x1="1680.5" y1="2" x2="1680.5" y2="12" stroke="white"/>
<line x1="1700.5" y1="2" x2="1700.5" y2="12" stroke="white"/>
<line x1="1720.5" y1="2" x2="1720.5" y2="12" stroke="white"/>
<line x1="1740.5" y1="2" x2="1740.5" y2="12" stroke="white"/>
<line x1="1760.5" y1="2" x2="1760.5" y2="12" stroke="white"/>
<line x1="1780.5" y1="2" x2="1780.5" y2="12" stroke="white"/>
<line x1="1800.5" y1="2" x2="1800.5" y2="12" stroke="white"/>
<line x1="1820.5" y1="2" x2="1820.5" y2="12" stroke="white"/>
<line x1="1840.5" y1="2" x2="1840.5" y2="12" stroke="white"/>
<line x1="1860.5" y1="2" x2="1860.5" y2="12" stroke="white"/>
<line x1="1880.5" y1="2" x2="1880.5" y2="12" stroke="white"/>
<line x1="1900.5" y1="2" x2="1900.5" y2="12" stroke="white"/>
</svg>
